<svg id="Layer_1" data-name="Layer 1" xmlns="http://www.w3.org/2000/svg" viewBox="0 0 350 350"><defs><style>.cls-1{fill:#3c3c3b;}</style></defs><path id="instagram-circle-icon" class="cls-1" d="M238.22,123.2v16.27a4.9,4.9,0,0,1-4.81,4.81H217.52a4.9,4.9,0,0,1-4.81-4.81V123.2a4.9,4.9,0,0,1,4.81-4.8h15.89A4.9,4.9,0,0,1,238.22,123.2Zm-61.37,80.6A21.82,21.82,0,1,0,155,182,22.09,22.09,0,0,0,176.85,203.8Zm131.24-22.55A133.09,133.09,0,1,1,175,48.15,133,133,0,0,1,308.09,181.25ZM251.9,159.8h-44a38.45,38.45,0,1,1-62.85,0H102.17v67.29a29.66,29.66,0,0,0,29.57,29.58h90.58a29.67,29.67,0,0,0,29.58-29.58Zm-75.05,51.76A29.65,29.65,0,0,0,206.42,182a30.43,30.43,0,0,0-10-22.19,36.8,36.8,0,0,0-7.39-4.8,26.79,26.79,0,0,0-12.2-2.59,32.66,32.66,0,0,0-12.2,2.59,32,32,0,0,0-7.4,4.8,29.14,29.14,0,0,0-10,22.19A29.66,29.66,0,0,0,176.85,211.56Zm75.05-75.79a29.66,29.66,0,0,0-29.58-29.57h-81v37.34h-5.92V106.2h-4.06v37.34h-5.92v-36.6a20.86,20.86,0,0,0-4.44,1.48v35.12h-5.91v-31.8c-7.4,5.55-12.57,14.05-12.57,24v19.6h47.32a38.39,38.39,0,0,1,54.72,0h47.69l-.37-19.6Z"/></svg>