<svg id="Layer_1" data-name="Layer 1" xmlns="http://www.w3.org/2000/svg" viewBox="0 0 350 350"><defs><style>.cls-1{fill:#3c3c3b;}</style></defs><path id="pinterest-circle-icon" class="cls-1" d="M180.36,46.31A133.09,133.09,0,1,0,313.45,179.4,133,133,0,0,0,180.36,46.31ZM197.74,223c-10.35,0-20.34-5.54-23.66-11.83l-6.66,26.62c-4.07,15.16-16.27,30.32-17.37,31.43-.74.73-2.22.73-2.22-.37-.37-1.85-3.33-21.08.37-36.6,1.85-7.77,12.57-52.5,12.57-52.5a38.88,38.88,0,0,1-3-15.16c0-14.42,8.13-24.77,18.48-24.77,8.88,0,12.94,6.65,12.94,14.42,0,8.87-5.54,21.81-8.5,34-2.59,10.35,5.18,18.49,15.16,18.49,18.11,0,30.68-23.3,30.68-51.39,0-21.08-14-37-39.92-37-29.21,0-47.33,21.81-47.33,46.21,0,8.5,2.59,14.42,6.29,18.85,1.85,2.22,1.85,3,1.48,5.55-.37,1.85-1.48,5.92-1.85,7.76-.74,2.59-2.59,3.33-4.81,2.59-13.31-5.54-19.59-20.33-19.59-37,0-27.36,22.92-60.26,68.76-60.26,36.6,0,61,26.62,61,55.09C249.86,194.93,228.79,223,197.74,223Z"/></svg>