<svg id="Layer_1" data-name="Layer 1" xmlns="http://www.w3.org/2000/svg" viewBox="0 0 350 350"><defs><style>.cls-1{fill:#3c3c3b;}</style></defs><path id="twitter-4-icon" class="cls-1" d="M168.93,44A134.19,134.19,0,1,0,303.12,178.15,134.11,134.11,0,0,0,168.93,44ZM236.4,155c1.86,43.61-30.57,92.44-88.35,92.44a87.42,87.42,0,0,1-47.71-14.16,62.69,62.69,0,0,0,46.22-13,31.37,31.37,0,0,1-29.07-21.62,35.94,35.94,0,0,0,14.16-.37,31.09,31.09,0,0,1-25-30.94,29.6,29.6,0,0,0,14.16,3.73c-13.79-9.32-17.89-27.58-9.69-41.37a87,87,0,0,0,64.11,32.42c-4.47-19.38,10.07-38.39,30.2-38.39a31.21,31.21,0,0,1,22.73,9.69A69.88,69.88,0,0,0,248,126a28.8,28.8,0,0,1-13.79,17.14,70.36,70.36,0,0,0,17.89-4.84A61.26,61.26,0,0,1,236.4,155Z"/></svg>